<?xml version="1.0"?>
<!DOCTYPE svg PUBLIC "-//W3C//DTD SVG 1.0//EN" "http://www.w3.org/TR/2001/REC-SVG-20010904/DTD/svg10.dtd">
<!-- Generated by graphviz version 2.38.0 (20140413.2041)
 -->
<!-- Title: %3 Pages: 1 -->
<svg xmlns="http://www.w3.org/2000/svg" xmlns:svg="http://www.w3.org/2000/svg" width="736pt" height="216pt" viewBox="0.00 0.00 736.03 216.00" preserveAspectRatio="xMidYMid meet" zoomAndPan="magnify" version="1.1" contentScriptType="application/ecmascript" contentStyleType="text/css"><defs><linearGradient id="white" x1="0%" y1="0%" x2="0%" y2="0%"><stop offset="0%" style="stop-color:rgb(255,255,255);stop-opacity:1"/></linearGradient><linearGradient id="black" x1="0%" y1="0%" x2="0%" y2="0%"><stop offset="0%" style="stop-color:rgb(0,0,0);stop-opacity:1"/></linearGradient><linearGradient id="aquamarine" x1="0%" y1="0%" x2="100%" y2="100%"><stop offset="0%" style="stop-color:rgb(255,255,255);stop-opacity:1"/><stop offset="100%" style="stop-color:rgb(127,255,212);stop-opacity:1"/></linearGradient><linearGradient id="azure" x1="0%" y1="0%" x2="100%" y2="100%"><stop offset="0%" style="stop-color:rgb(255,255,255);stop-opacity:1"/><stop offset="100%" style="stop-color:rgb(240,255,255);stop-opacity:1"/></linearGradient><linearGradient id="blue" x1="0%" y1="0%" x2="100%" y2="100%"><stop offset="0%" style="stop-color:rgb(255,255,255);stop-opacity:1"/><stop offset="100%" style="stop-color:rgb(0,0,255);stop-opacity:1"/></linearGradient><linearGradient id="blueviolet" x1="0%" y1="0%" x2="100%" y2="100%"><stop offset="0%" style="stop-color:rgb(255,255,255);stop-opacity:1"/><stop offset="100%" style="stop-color:rgb(138,43,226);stop-opacity:1"/></linearGradient><linearGradient id="brown" x1="0%" y1="0%" x2="100%" y2="100%"><stop offset="0%" style="stop-color:rgb(255,255,255);stop-opacity:1"/><stop offset="100%" style="stop-color:rgb(165,42,42);stop-opacity:1"/></linearGradient><linearGradient id="cadetblue" x1="0%" y1="0%" x2="100%" y2="100%"><stop offset="0%" style="stop-color:rgb(255,255,255);stop-opacity:1"/><stop offset="100%" style="stop-color:rgb(95,158,160);stop-opacity:1"/></linearGradient><linearGradient id="chocolate" x1="0%" y1="0%" x2="100%" y2="100%"><stop offset="0%" style="stop-color:rgb(255,255,255);stop-opacity:1"/><stop offset="100%" style="stop-color:rgb(210,105,30);stop-opacity:1"/></linearGradient><linearGradient id="cornflowerblue" x1="0%" y1="0%" x2="100%" y2="100%"><stop offset="0%" style="stop-color:rgb(255,255,255);stop-opacity:1"/><stop offset="100%" style="stop-color:rgb(100,149,237);stop-opacity:1"/></linearGradient><linearGradient id="crimson" x1="0%" y1="0%" x2="100%" y2="100%"><stop offset="0%" style="stop-color:rgb(255,255,255);stop-opacity:1"/><stop offset="100%" style="stop-color:rgb(220,20,60);stop-opacity:1"/></linearGradient><linearGradient id="cyan" x1="0%" y1="0%" x2="100%" y2="100%"><stop offset="0%" style="stop-color:rgb(255,255,255);stop-opacity:1"/><stop offset="100%" style="stop-color:rgb(0,255,255);stop-opacity:1"/></linearGradient><linearGradient id="darkgreen" x1="0%" y1="0%" x2="100%" y2="100%"><stop offset="0%" style="stop-color:rgb(255,255,255);stop-opacity:1"/><stop offset="100%" style="stop-color:rgb(0,100,0);stop-opacity:1"/></linearGradient><linearGradient id="darkorange" x1="0%" y1="0%" x2="100%" y2="100%"><stop offset="0%" style="stop-color:rgb(255,255,255);stop-opacity:1"/><stop offset="100%" style="stop-color:rgb(255,140,0);stop-opacity:1"/></linearGradient><linearGradient id="gold" x1="0%" y1="0%" x2="100%" y2="100%"><stop offset="0%" style="stop-color:rgb(255,255,255);stop-opacity:1"/><stop offset="100%" style="stop-color:rgb(255,215,0);stop-opacity:1"/></linearGradient><linearGradient id="gray" x1="0%" y1="0%" x2="100%" y2="100%"><stop offset="0%" style="stop-color:rgb(255,255,255);stop-opacity:1"/><stop offset="100%" style="stop-color:rgb(192,192,192);stop-opacity:1"/></linearGradient><linearGradient id="greenyellow" x1="0%" y1="0%" x2="100%" y2="100%"><stop offset="0%" style="stop-color:rgb(255,255,255);stop-opacity:1"/><stop offset="100%" style="stop-color:rgb(173,255,47);stop-opacity:1"/></linearGradient><linearGradient id="green" x1="0%" y1="0%" x2="100%" y2="100%"><stop offset="0%" style="stop-color:rgb(255,255,255);stop-opacity:1"/><stop offset="100%" style="stop-color:rgb(0,255,0);stop-opacity:1"/></linearGradient><linearGradient id="grey" x1="0%" y1="0%" x2="100%" y2="100%"><stop offset="0%" style="stop-color:rgb(255,255,255);stop-opacity:1"/><stop offset="100%" style="stop-color:rgb(192,192,192);stop-opacity:1"/></linearGradient><linearGradient id="hotpink" x1="0%" y1="0%" x2="100%" y2="100%"><stop offset="0%" style="stop-color:rgb(255,255,255);stop-opacity:1"/><stop offset="100%" style="stop-color:rgb(255,105,180);stop-opacity:1"/></linearGradient><linearGradient id="indianred" x1="0%" y1="0%" x2="100%" y2="100%"><stop offset="0%" style="stop-color:rgb(255,255,255);stop-opacity:1"/><stop offset="100%" style="stop-color:rgb(205,92,92);stop-opacity:1"/></linearGradient><linearGradient id="indigo" x1="0%" y1="0%" x2="100%" y2="100%"><stop offset="0%" style="stop-color:rgb(255,255,255);stop-opacity:1"/><stop offset="100%" style="stop-color:rgb(75,0,130);stop-opacity:1"/></linearGradient><linearGradient id="lavender" x1="0%" y1="0%" x2="100%" y2="100%"><stop offset="0%" style="stop-color:rgb(255,255,255);stop-opacity:1"/><stop offset="100%" style="stop-color:rgb(230,230,250);stop-opacity:1"/></linearGradient><linearGradient id="lightblue" x1="0%" y1="0%" x2="100%" y2="100%"><stop offset="0%" style="stop-color:rgb(255,255,255);stop-opacity:1"/><stop offset="100%" style="stop-color:rgb(173,216,230);stop-opacity:1"/></linearGradient><linearGradient id="lightgray" x1="0%" y1="0%" x2="100%" y2="100%"><stop offset="0%" style="stop-color:rgb(255,255,255);stop-opacity:1"/><stop offset="100%" style="stop-color:rgb(211,211,211);stop-opacity:1"/></linearGradient><linearGradient id="lightgrey" x1="0%" y1="0%" x2="100%" y2="100%"><stop offset="0%" style="stop-color:rgb(255,255,255);stop-opacity:1"/><stop offset="100%" style="stop-color:rgb(211,211,211);stop-opacity:1"/></linearGradient><linearGradient id="magenta" x1="0%" y1="0%" x2="100%" y2="100%"><stop offset="0%" style="stop-color:rgb(255,255,255);stop-opacity:1"/><stop offset="100%" style="stop-color:rgb(255,0,255);stop-opacity:1"/></linearGradient><linearGradient id="maroon" x1="0%" y1="0%" x2="100%" y2="100%"><stop offset="0%" style="stop-color:rgb(255,255,255);stop-opacity:1"/><stop offset="100%" style="stop-color:rgb(176,48,96);stop-opacity:1"/></linearGradient><linearGradient id="mediumblue" x1="0%" y1="0%" x2="100%" y2="100%"><stop offset="0%" style="stop-color:rgb(255,255,255);stop-opacity:1"/><stop offset="100%" style="stop-color:rgb(0,0,205);stop-opacity:1"/></linearGradient><linearGradient id="mediumpurple" x1="0%" y1="0%" x2="100%" y2="100%"><stop offset="0%" style="stop-color:rgb(255,255,255);stop-opacity:1"/><stop offset="100%" style="stop-color:rgb(147,112,219);stop-opacity:1"/></linearGradient><linearGradient id="orange" x1="0%" y1="0%" x2="100%" y2="100%"><stop offset="0%" style="stop-color:rgb(255,255,255);stop-opacity:1"/><stop offset="100%" style="stop-color:rgb(255,165,0);stop-opacity:1"/></linearGradient><linearGradient id="pink" x1="0%" y1="0%" x2="100%" y2="100%"><stop offset="0%" style="stop-color:rgb(255,255,255);stop-opacity:1"/><stop offset="100%" style="stop-color:rgb(255,192,203);stop-opacity:1"/></linearGradient><linearGradient id="purple" x1="0%" y1="0%" x2="100%" y2="100%"><stop offset="0%" style="stop-color:rgb(255,255,255);stop-opacity:1"/><stop offset="100%" style="stop-color:rgb(160,32,240);stop-opacity:1"/></linearGradient><linearGradient id="red" x1="0%" y1="0%" x2="100%" y2="100%"><stop offset="0%" style="stop-color:rgb(255,255,255);stop-opacity:1"/><stop offset="100%" style="stop-color:rgb(255,0,0);stop-opacity:1"/></linearGradient><linearGradient id="steelblue" x1="0%" y1="0%" x2="100%" y2="100%"><stop offset="0%" style="stop-color:rgb(255,255,255);stop-opacity:1"/><stop offset="100%" style="stop-color:rgb(70,130,180);stop-opacity:1"/></linearGradient><linearGradient id="violet" x1="0%" y1="0%" x2="100%" y2="100%"><stop offset="0%" style="stop-color:rgb(255,255,255);stop-opacity:1"/><stop offset="100%" style="stop-color:rgb(238,130,238);stop-opacity:1"/></linearGradient><linearGradient id="yellow" x1="0%" y1="0%" x2="100%" y2="100%"><stop offset="0%" style="stop-color:rgb(255,255,255);stop-opacity:1"/><stop offset="100%" style="stop-color:rgb(255,255,0);stop-opacity:1"/></linearGradient><linearGradient id="none" x1="0%" y1="0%" x2="100%" y2="100%"><stop offset="0%" style="stop-color:rgb(255,255,255);stop-opacity:1"/><stop offset="100%" style="stop-color:rgb(255,255,255);stop-opacity:1"/></linearGradient></defs>
<g id="graph0" class="graph" transform="scale(1 1) rotate(0) translate(4 212)"><polygon fill="white" stroke="none" points="-4,4 -4,-212 732.032,-212 732.032,4 -4,4"/><title>%3</title><g id="node1" class="node"><polygon fill="lightblue" stroke="black" points="298.489,-208 0.170216,-208 0.170216,-172 298.489,-172 298.489,-208" style="fill: black; stroke: none; fill-opacity:0.3" transform="translate(3,3)"/><polygon fill="lightblue" stroke="black" points="298.489,-208 0.170216,-208 0.170216,-172 298.489,-172 298.489,-208" style="fill:url(#lightblue);stroke:black;"/><text text-anchor="middle" x="149.33" y="-185.8" font-family="Times,serif" font-size="14.00" style="font-size:10px; font-family:Verdana">Data definition: api/data/src/main/pegasus/**.pdsc</text></g><g id="node4" class="node"><polygon fill="lightblue" stroke="black" points="331.481,-122 11.1782,-122 11.1782,-86 331.481,-86 331.481,-122" style="fill: black; stroke: none; fill-opacity:0.3" transform="translate(3,3)"/><polygon fill="lightblue" stroke="black" points="331.481,-122 11.1782,-122 11.1782,-86 331.481,-86 331.481,-122" style="fill:url(#lightblue);stroke:black;"/><text text-anchor="middle" x="171.33" y="-99.8" font-family="Times,serif" font-size="14.00" style="font-size:10px; font-family:Verdana">api/data/src/mainGeneratedDataTemplate/java/**.java</text></g><g id="edge1" class="edge"><polygon fill="black" stroke="black" points="167.704,-132.656 166.852,-122.095 160.933,-130.882 167.704,-132.656" style="fill: black; stroke: none; fill-opacity:0.3" transform="translate(3,3)"/><path fill="none" stroke="black" d="M153.888,-171.595C156.887,-160.144 160.873,-144.926 164.277,-131.929" style="fill: none; stroke: black; stroke-opacity:0.3" transform="translate(3,3)"/><polygon fill="black" stroke="black" points="167.704,-132.656 166.852,-122.095 160.933,-130.882 167.704,-132.656" style="fill:url(#black);stroke:black;"/><path fill="none" stroke="black" d="M153.888,-171.595C156.887,-160.144 160.873,-144.926 164.277,-131.929"/><text text-anchor="middle" x="200.819" y="-142.8" font-family="Times,serif" font-size="14.00" style="font-size:10px; font-family:Verdana">api:data:build</text></g><g id="node2" class="node"><polygon fill="lightblue" stroke="black" points="728.234,-208 316.425,-208 316.425,-172 728.234,-172 728.234,-208" style="fill: black; stroke: none; fill-opacity:0.3" transform="translate(3,3)"/><polygon fill="lightblue" stroke="black" points="728.234,-208 316.425,-208 316.425,-172 728.234,-172 728.234,-208" style="fill:url(#lightblue);stroke:black;"/><text text-anchor="middle" x="522.33" y="-185.8" font-family="Times,serif" font-size="14.00" style="font-size:10px; font-family:Verdana">API logic: api/server/main/kotlin/com/prezi/fail/api/impl/*Resource.kt</text></g><g id="node3" class="node"><polygon fill="lightblue" stroke="black" points="610.224,-122 392.436,-122 392.436,-86 610.224,-86 610.224,-122" style="fill: black; stroke: none; fill-opacity:0.3" transform="translate(3,3)"/><polygon fill="lightblue" stroke="black" points="610.224,-122 392.436,-122 392.436,-86 610.224,-86 610.224,-122" style="fill:url(#lightblue);stroke:black;"/><text text-anchor="middle" x="501.33" y="-99.8" font-family="Times,serif" font-size="14.00" style="font-size:10px; font-family:Verdana">api/data/src/main/idl/*.restspec.json</text></g><g id="edge3" class="edge"><polygon fill="black" stroke="black" points="511.424,-130.948 505.603,-122.095 504.633,-132.645 511.424,-130.948" style="fill: black; stroke: none; fill-opacity:0.3" transform="translate(3,3)"/><path fill="none" stroke="black" d="M517.978,-171.595C515.116,-160.144 511.311,-144.926 508.062,-131.929" style="fill: none; stroke: black; stroke-opacity:0.3" transform="translate(3,3)"/><polygon fill="black" stroke="black" points="511.424,-130.948 505.603,-122.095 504.633,-132.645 511.424,-130.948" style="fill:url(#black);stroke:black;"/><path fill="none" stroke="black" d="M517.978,-171.595C515.116,-160.144 511.311,-144.926 508.062,-131.929"/><text text-anchor="middle" x="587.202" y="-142.8" font-family="Times,serif" font-size="14.00" style="font-size:10px; font-family:Verdana">server:data:publisRestliIdl</text></g><g id="node5" class="node"><polygon fill="lightblue" stroke="black" points="536.772,-36 207.887,-36 207.887,-0 536.772,-0 536.772,-36" style="fill: black; stroke: none; fill-opacity:0.3" transform="translate(3,3)"/><polygon fill="lightblue" stroke="black" points="536.772,-36 207.887,-36 207.887,-0 536.772,-0 536.772,-36" style="fill:url(#lightblue);stroke:black;"/><text text-anchor="middle" x="372.33" y="-13.8" font-family="Times,serif" font-size="14.00" style="font-size:10px; font-family:Verdana">Client library: api/data/mainGeneratedRest/java/**.java</text></g><g id="edge4" class="edge"><polygon fill="black" stroke="black" points="409,-38.7021 398.711,-36.1783 405.181,-44.5681 409,-38.7021" style="fill: black; stroke: none; fill-opacity:0.3" transform="translate(3,3)"/><path fill="none" stroke="black" d="M474.913,-85.7986C455.348,-73.0584 428.498,-55.5751 407.176,-41.6905" style="fill: none; stroke: black; stroke-opacity:0.3" transform="translate(3,3)"/><polygon fill="black" stroke="black" points="409,-38.7021 398.711,-36.1783 405.181,-44.5681 409,-38.7021" style="fill:url(#black);stroke:black;"/><path fill="none" stroke="black" d="M474.913,-85.7986C455.348,-73.0584 428.498,-55.5751 407.176,-41.6905"/><text text-anchor="middle" x="459.719" y="-56.8" font-family="Times,serif" font-size="14.00" style="font-size:10px; font-family:Verdana">build</text></g><g id="edge2" class="edge"><polygon fill="black" stroke="black" points="323.691,-43.12 331.568,-36.0346 320.992,-36.6613 323.691,-43.12" style="fill: black; stroke: none; fill-opacity:0.3" transform="translate(3,3)"/><path fill="none" stroke="black" d="M212.49,-85.7986C244.3,-72.5049 288.467,-54.0471 322.314,-39.902" style="fill: none; stroke: black; stroke-opacity:0.3" transform="translate(3,3)"/><polygon fill="black" stroke="black" points="323.691,-43.12 331.568,-36.0346 320.992,-36.6613 323.691,-43.12" style="fill:url(#black);stroke:black;"/><path fill="none" stroke="black" d="M212.49,-85.7986C244.3,-72.5049 288.467,-54.0471 322.314,-39.902"/></g></g>
</svg>
