<?xml version="1.0" encoding="UTF-8" standalone="no"?>
<!DOCTYPE svg PUBLIC "-//W3C//DTD SVG 1.1//EN"
 "http://www.w3.org/Graphics/SVG/1.1/DTD/svg11.dtd">
<!-- Generated by graphviz version 2.38.0 (20140413.2041)
 -->
<!-- Title: %3 Pages: 1 -->
<svg width="736pt" height="216pt"
 viewBox="0.00 0.00 736.03 216.00" xmlns="http://www.w3.org/2000/svg" xmlns:xlink="http://www.w3.org/1999/xlink">
<g id="graph0" class="graph" transform="scale(1 1) rotate(0) translate(4 212)">
<title>%3</title>
<polygon fill="white" stroke="none" points="-4,4 -4,-212 732.032,-212 732.032,4 -4,4"/>
<!-- pdsc -->
<g id="node1" class="node"><title>pdsc</title>
<polygon fill="lightblue" stroke="black" points="298.489,-208 0.170216,-208 0.170216,-172 298.489,-172 298.489,-208"/>
<text text-anchor="middle" x="149.33" y="-185.8" font-family="Times,serif" font-size="14.00">Data definition: api/data/src/main/pegasus/**.pdsc</text>
</g>
<!-- dao -->
<g id="node4" class="node"><title>dao</title>
<polygon fill="lightblue" stroke="black" points="331.481,-122 11.1782,-122 11.1782,-86 331.481,-86 331.481,-122"/>
<text text-anchor="middle" x="171.33" y="-99.8" font-family="Times,serif" font-size="14.00">api/data/src/mainGeneratedDataTemplate/java/**.java</text>
</g>
<!-- pdsc&#45;&gt;dao -->
<g id="edge1" class="edge"><title>pdsc&#45;&gt;dao</title>
<path fill="none" stroke="black" d="M153.888,-171.595C156.887,-160.144 160.873,-144.926 164.277,-131.929"/>
<polygon fill="black" stroke="black" points="167.704,-132.656 166.852,-122.095 160.933,-130.882 167.704,-132.656"/>
<text text-anchor="middle" x="200.819" y="-142.8" font-family="Times,serif" font-size="14.00">api:data:build</text>
</g>
<!-- resource -->
<g id="node2" class="node"><title>resource</title>
<polygon fill="lightblue" stroke="black" points="728.234,-208 316.425,-208 316.425,-172 728.234,-172 728.234,-208"/>
<text text-anchor="middle" x="522.33" y="-185.8" font-family="Times,serif" font-size="14.00">API logic: api/server/main/kotlin/com/prezi/fail/api/impl/*Resource.kt</text>
</g>
<!-- restspec -->
<g id="node3" class="node"><title>restspec</title>
<polygon fill="lightblue" stroke="black" points="610.224,-122 392.436,-122 392.436,-86 610.224,-86 610.224,-122"/>
<text text-anchor="middle" x="501.33" y="-99.8" font-family="Times,serif" font-size="14.00">api/data/src/main/idl/*.restspec.json</text>
</g>
<!-- resource&#45;&gt;restspec -->
<g id="edge3" class="edge"><title>resource&#45;&gt;restspec</title>
<path fill="none" stroke="black" d="M517.978,-171.595C515.116,-160.144 511.311,-144.926 508.062,-131.929"/>
<polygon fill="black" stroke="black" points="511.424,-130.948 505.603,-122.095 504.633,-132.645 511.424,-130.948"/>
<text text-anchor="middle" x="587.202" y="-142.8" font-family="Times,serif" font-size="14.00">server:data:publisRestliIdl</text>
</g>
<!-- builder -->
<g id="node5" class="node"><title>builder</title>
<polygon fill="lightblue" stroke="black" points="536.772,-36 207.887,-36 207.887,-0 536.772,-0 536.772,-36"/>
<text text-anchor="middle" x="372.33" y="-13.8" font-family="Times,serif" font-size="14.00">Client library: api/data/mainGeneratedRest/java/**.java</text>
</g>
<!-- restspec&#45;&gt;builder -->
<g id="edge4" class="edge"><title>restspec&#45;&gt;builder</title>
<path fill="none" stroke="black" d="M474.913,-85.7986C455.348,-73.0584 428.498,-55.5751 407.176,-41.6905"/>
<polygon fill="black" stroke="black" points="409,-38.7021 398.711,-36.1783 405.181,-44.5681 409,-38.7021"/>
<text text-anchor="middle" x="459.719" y="-56.8" font-family="Times,serif" font-size="14.00">build</text>
</g>
<!-- dao&#45;&gt;builder -->
<g id="edge2" class="edge"><title>dao&#45;&gt;builder</title>
<path fill="none" stroke="black" d="M212.49,-85.7986C244.3,-72.5049 288.467,-54.0471 322.314,-39.902"/>
<polygon fill="black" stroke="black" points="323.691,-43.12 331.568,-36.0346 320.992,-36.6613 323.691,-43.12"/>
</g>
</g>
</svg>
